<?xml version="1.0" encoding="UTF-8"?>
<svg width="160px" height="160px" viewBox="0 0 160 160" version="1.1" xmlns="http://www.w3.org/2000/svg" xmlns:xlink="http://www.w3.org/1999/xlink">
    <!-- Generator: Sketch 47.1 (45422) - http://www.bohemiancoding.com/sketch -->
    <title>img_session_expired</title>
    <desc>Created with Sketch.</desc>
    <defs></defs>
    <g id="Page-1" stroke="none" stroke-width="1" fill="none" fill-rule="evenodd">
        <g id="img_session_expired">
            <g id="Group-5" transform="translate(1.000000, 1.000000)">
                <ellipse id="Oval" fill="#F4F4F4" cx="78.5269461" cy="79.0439449" rx="78.5269461" ry="78.9560551"></ellipse>
                <path d="M44.9401198,136.712575 L111.194691,136.712575 C112.239733,136.712575 113.086906,135.865401 113.086906,134.820359 C113.086906,133.775317 112.239733,132.928144 111.194691,132.928144 L44.9401198,132.928144 C43.895078,132.928144 43.0479042,133.775317 43.0479042,134.820359 C43.0479042,135.865401 43.895078,136.712575 44.9401198,136.712575 Z" id="Line-2" fill="#DCDCDC" fill-rule="nonzero"></path>
                <path d="M79.4730539,122.047904 C53.8695297,122.047904 33.1137725,101.292147 33.1137725,75.6886228 C33.1137725,50.0850986 53.8695297,29.3293413 79.4730539,29.3293413 C105.076578,29.3293413 125.832335,50.0850986 125.832335,75.6886228 C125.832335,101.292147 105.076578,122.047904 79.4730539,122.047904 Z M79.4730539,118.263473 C102.986494,118.263473 122.047904,99.2020633 122.047904,75.6886228 C122.047904,52.1751822 102.986494,33.1137725 79.4730539,33.1137725 C55.9596133,33.1137725 36.8982036,52.1751822 36.8982036,75.6886228 C36.8982036,99.2020633 55.9596133,118.263473 79.4730539,118.263473 Z" id="Oval-2" fill="#4A4A4A" fill-rule="nonzero"></path>
                <ellipse id="Oval-3" fill="#E7E7E7" transform="translate(64.084946, 64.319144) rotate(127.000000) translate(-64.084946, -64.319144) " cx="64.084946" cy="64.3191436" rx="26.9640719" ry="11.3532934"></ellipse>
                <circle id="Oval-2" fill="#F4F4F4" cx="108.802395" cy="104.071856" r="26.491018"></circle>
                <path d="M108.329341,125.832335 C96.572621,125.832335 87.0419162,116.30163 87.0419162,104.54491 C87.0419162,92.7881899 96.572621,83.257485 108.329341,83.257485 C120.086062,83.257485 129.616766,92.7881899 129.616766,104.54491 C129.616766,116.30163 120.086062,125.832335 108.329341,125.832335 Z M108.329341,122.047904 C117.995978,122.047904 125.832335,114.211547 125.832335,104.54491 C125.832335,94.8782735 117.995978,87.0419162 108.329341,87.0419162 C98.6627046,87.0419162 90.8263473,94.8782735 90.8263473,104.54491 C90.8263473,114.211547 98.6627046,122.047904 108.329341,122.047904 Z" id="Oval-2" fill="#EAA40B" fill-rule="nonzero"></path>
                <path d="M108.329341,93.1916168 L108.329341,108.593136" id="Line" stroke="#EAA40B" stroke-width="4" stroke-linecap="round"></path>
                <path d="M108.329341,114.005988 L108.329341,115.501916" id="Line" stroke="#EAA40B" stroke-width="4" stroke-linecap="round"></path>
                <path d="M61.394511,77.0396316 L61.394511,77.2680639 L61.394511,77.2680639 C61.394511,78.3726334 62.2899415,79.2680639 63.394511,79.2680639 L82.1326347,79.2680639 L82.1326347,79.2680639 C83.2372042,79.2680639 84.1326347,78.3726334 84.1326347,77.2680639 L84.1326347,49.5971058 L84.1326347,49.5971058 C84.1326347,48.4925363 83.2372042,47.5971058 82.1326347,47.5971058 L81.8765517,47.5971058 L81.8765517,47.5971058 C80.7719822,47.5971058 79.8765517,48.4925363 79.8765517,49.5971058 L79.8765517,75.0396316 L63.394511,75.0396316 L63.394511,75.0396316 C62.2899415,75.0396316 61.394511,75.9350621 61.394511,77.0396316 Z" id="Shape" fill="#4A4A4A" fill-rule="nonzero"></path>
            </g>
        </g>
    </g>
</svg>